# Blender v2.79 (sub 0) OBJ File: ''
# www.blender.org
mtllib patrickrightfin.mtl
o Patrick.001_Patrick.002
v -1.446235 2.794268 0.452950
v -1.558471 2.885410 0.414729
v -1.586982 2.843375 0.204148
v -1.486349 2.789269 0.221010
v -1.344354 2.907999 0.569270
v -1.477387 3.015789 0.521800
v -1.427151 2.768092 -0.076017
v -1.525325 2.814991 -0.063229
v -1.425985 2.923595 -0.272315
v -1.315065 2.883732 -0.309475
v -1.196515 3.289182 -0.350708
v -1.341444 3.292522 -0.308025
v -1.290623 3.661155 -0.221156
v -1.112640 3.690938 -0.255647
v -1.218252 3.255372 0.519438
v -1.381326 3.309203 0.478645
v -1.121391 3.607503 0.388364
v -1.309014 3.598151 0.361403
v -1.107232 3.735506 0.260957
v -1.299178 3.715133 0.246209
v -1.120164 3.758471 0.112875
v -1.308195 3.744067 0.111946
v -1.104578 3.795491 -0.080222
v -1.292442 3.768872 -0.062504
v -2.750216 3.435979 0.086341
v -2.756407 3.427757 0.189860
v -2.657348 3.587925 0.167870
v -2.660161 3.606318 0.074399
v -2.572830 3.572429 -0.000719
v -2.636621 3.437683 -0.017758
v -2.569859 3.281322 -0.011595
v -2.660637 3.248493 0.078273
v -2.681406 3.254568 0.206960
v -2.718698 3.437138 0.272052
v -2.644185 3.284989 0.309550
v -2.548436 3.330679 0.355689
v -2.593071 3.446257 0.333886
v -2.532306 3.547041 0.292674
v -2.625183 3.578685 0.241194
v -1.604908 3.748007 -0.031702
v -1.598682 3.646732 -0.170584
v -1.975600 3.638582 -0.111375
v -1.983555 3.724478 0.006021
v -1.991520 3.710403 0.135572
v -1.618089 3.731169 0.121122
v -2.369957 3.689866 0.044507
v -2.360159 3.627613 -0.050969
v -2.370162 3.672398 0.150465
v -1.610915 3.701578 0.238861
v -1.981358 3.684134 0.235479
v -1.978010 3.599391 0.321473
v -1.616061 3.599191 0.339908
v -2.349426 3.652093 0.232630
v -2.330342 3.587522 0.303690
v -1.666202 3.363961 0.442658
v -2.006417 3.409895 0.409284
v -2.054386 3.209268 0.441825
v -1.736416 3.119317 0.480294
v -2.335508 3.437252 0.376328
v -2.364242 3.276323 0.403468
v -1.626718 3.321980 -0.246495
v -1.684698 2.998311 -0.215233
v -2.020702 3.091393 -0.147504
v -1.985792 3.364931 -0.174817
v -2.352119 3.408751 -0.101691
v -2.363494 3.186354 -0.078407
v -1.768305 2.900277 -0.032594
v -1.824884 2.929773 0.201217
v -2.133534 3.031359 0.205353
v -2.086905 3.005823 0.007367
v -2.411941 3.113502 0.048136
v -2.446412 3.131029 0.209696
v -1.801782 2.988687 0.385996
v -2.109726 3.091131 0.362011
v -2.415861 3.179776 0.338032
vt 0.370895 0.303888
vt 0.372019 0.319344
vt 0.397262 0.330767
vt 0.399250 0.322279
vt 0.344286 0.307382
vt 0.349601 0.324727
vt 0.434070 0.342572
vt 0.426932 0.346497
vt 0.440729 0.371528
vt 0.450962 0.373161
vt 0.425536 0.422441
vt 0.418355 0.410854
vt 0.382349 0.441914
vt 0.383230 0.461431
vt 0.314704 0.352744
vt 0.328406 0.359413
vt 0.295951 0.405240
vt 0.316065 0.398693
vt 0.301826 0.430139
vt 0.320211 0.417858
vt 0.322835 0.443442
vt 0.335165 0.428484
vt 0.349483 0.461152
vt 0.355248 0.442147
vt 0.379715 0.375983
vt 0.378440 0.375248
vt 0.375580 0.379066
vt 0.377322 0.380313
vt 0.379573 0.382508
vt 0.382750 0.377870
vt 0.387354 0.374325
vt 0.383320 0.372949
vt 0.379894 0.371698
vt 0.377168 0.374716
vt 0.376972 0.370939
vt 0.373816 0.370117
vt 0.373714 0.373990
vt 0.370941 0.377597
vt 0.373996 0.378125
vt 0.361438 0.422166
vt 0.381118 0.421557
vt 0.380006 0.403117
vt 0.367543 0.403823
vt 0.359047 0.398153
vt 0.347544 0.412715
vt 0.373051 0.389732
vt 0.379485 0.389353
vt 0.368755 0.386819
vt 0.337393 0.405136
vt 0.352673 0.393489
vt 0.350585 0.385547
vt 0.334440 0.391882
vt 0.365353 0.384434
vt 0.364010 0.380433
vt 0.342137 0.365404
vt 0.354950 0.370047
vt 0.363455 0.355929
vt 0.356316 0.341613
vt 0.365891 0.372671
vt 0.370043 0.365564
vt 0.408621 0.398957
vt 0.425984 0.370655
vt 0.409871 0.370926
vt 0.398285 0.388657
vt 0.389301 0.381861
vt 0.395536 0.372727
vt 0.415242 0.352941
vt 0.392236 0.342599
vt 0.386530 0.354890
vt 0.402255 0.360412
vt 0.391224 0.367420
vt 0.382503 0.364751
vt 0.372804 0.336417
vt 0.373789 0.352136
vt 0.375512 0.363528
vn -0.5986 -0.5508 0.5816
vn -0.4896 -0.6673 0.5612
vn -0.4320 -0.8944 0.1158
vn -0.5276 -0.8452 0.0851
vn -0.3866 -0.0784 0.9189
vn -0.2922 -0.0815 0.9528
vn -0.4563 -0.8144 -0.3583
vn -0.4100 -0.8626 -0.2963
vn -0.3608 -0.4142 -0.8356
vn -0.3843 -0.3275 -0.8632
vn -0.2716 0.1430 -0.9517
vn -0.2405 0.1096 -0.9644
vn -0.2021 0.5662 -0.7991
vn -0.2362 0.6113 -0.7553
vn -0.1541 0.2918 0.9440
vn -0.1124 0.2969 0.9483
vn -0.1322 0.5701 0.8108
vn -0.0937 0.5577 0.8247
vn -0.1199 0.8762 0.4667
vn -0.0846 0.8766 0.4736
vn -0.0987 0.9801 0.1719
vn -0.0698 0.9824 0.1732
vn -0.1646 0.9624 -0.2160
vn -0.1275 0.9671 -0.2202
vn -0.9229 0.0493 -0.3818
vn -0.9811 0.0518 0.1862
vn -0.6097 0.7631 0.2142
vn -0.6150 0.7326 -0.2916
vn -0.3846 0.4752 -0.7913
vn -0.5163 0.0363 -0.8556
vn -0.4709 -0.3756 -0.7982
vn -0.6871 -0.6235 -0.3730
vn -0.7374 -0.6499 0.1841
vn -0.7479 0.1702 0.6416
vn -0.5779 -0.4368 0.6894
vn -0.3027 -0.0884 0.9489
vn -0.3194 0.2702 0.9083
vn -0.2083 0.5563 0.8044
vn -0.4439 0.7204 0.5328
vn -0.0876 0.9640 -0.2510
vn -0.1506 0.5542 -0.8186
vn -0.1465 0.5508 -0.8216
vn -0.0975 0.9636 -0.2490
vn -0.0680 0.9799 0.1874
vn -0.0461 0.9832 0.1767
vn -0.2067 0.9508 -0.2308
vn -0.2196 0.5476 -0.8074
vn -0.1775 0.9620 0.2072
vn -0.0446 0.8700 0.4910
vn -0.0597 0.8681 0.4927
vn -0.0498 0.5780 0.8145
vn -0.0451 0.5648 0.8239
vn -0.1443 0.8612 0.4873
vn -0.1039 0.5857 0.8038
vn -0.0633 0.2945 0.9535
vn -0.0629 0.3041 0.9505
vn -0.1572 -0.1539 0.9755
vn -0.1863 -0.1492 0.9711
vn -0.1109 0.3071 0.9452
vn -0.1976 -0.1430 0.9698
vn -0.1935 0.0920 -0.9768
vn -0.3012 -0.4476 -0.8419
vn -0.2918 -0.4566 -0.8404
vn -0.1871 0.0797 -0.9791
vn -0.2399 0.0629 -0.9687
vn -0.3426 -0.4469 -0.8263
vn -0.3447 -0.8974 -0.2752
vn -0.3316 -0.9266 0.1773
vn -0.3040 -0.9291 0.2103
vn -0.3333 -0.9030 -0.2710
vn -0.4085 -0.8635 -0.2956
vn -0.3882 -0.8982 0.2061
vn -0.3214 -0.7221 0.6125
vn -0.2691 -0.7154 0.6447
vn -0.3226 -0.6755 0.6630
usemtl Skin_skin.png
s 1
f 1/1/1 2/2/2 3/3/3 4/4/4
f 1/1/1 5/5/5 6/6/6 2/2/2
f 7/7/7 8/8/8 9/9/9 10/10/10
f 7/7/7 4/4/4 3/3/3 8/8/8
f 11/11/11 12/12/12 13/13/13 14/14/14
f 11/11/11 10/10/10 9/9/9 12/12/12
f 15/15/15 16/16/16 6/6/6 5/5/5
f 15/15/15 17/17/17 18/18/18 16/16/16
f 19/19/19 20/20/20 18/18/18 17/17/17
f 19/19/19 21/21/21 22/22/22 20/20/20
f 23/23/23 24/24/24 22/22/22 21/21/21
f 23/23/23 14/14/14 13/13/13 24/24/24
f 25/25/25 26/26/26 27/27/27 28/28/28
f 25/25/25 28/28/28 29/29/29 30/30/30
f 25/25/25 30/30/30 31/31/31 32/32/32
f 25/25/25 32/32/32 33/33/33 26/26/26
f 34/34/34 26/26/26 33/33/33 35/35/35
f 34/34/34 35/35/35 36/36/36 37/37/37
f 34/34/34 37/37/37 38/38/38 39/39/39
f 34/34/34 39/39/39 27/27/27 26/26/26
f 40/40/40 41/41/41 42/42/42 43/43/43
f 40/40/40 43/43/43 44/44/44 45/45/45
f 40/40/40 45/45/45 22/22/22 24/24/24
f 40/40/40 24/24/24 13/13/13 41/41/41
f 46/46/46 47/47/47 29/29/29 28/28/28
f 46/46/46 28/28/28 27/27/27 48/48/48
f 46/46/46 48/48/48 44/44/44 43/43/43
f 46/46/46 43/43/43 42/42/42 47/47/47
f 49/49/49 45/45/45 44/44/44 50/50/50
f 49/49/49 50/50/50 51/51/51 52/52/52
f 49/49/49 52/52/52 18/18/18 20/20/20
f 49/49/49 20/20/20 22/22/22 45/45/45
f 53/53/53 48/48/48 27/27/27 39/39/39
f 53/53/53 39/39/39 38/38/38 54/54/54
f 53/53/53 54/54/54 51/51/51 50/50/50
f 53/53/53 50/50/50 44/44/44 48/48/48
f 55/55/55 52/52/52 51/51/51 56/56/56
f 55/55/55 56/56/56 57/57/57 58/58/58
f 55/55/55 58/58/58 6/6/6 16/16/16
f 55/55/55 16/16/16 18/18/18 52/52/52
f 59/59/59 54/54/54 38/38/38 37/37/37
f 59/59/59 37/37/37 36/36/36 60/60/60
f 59/59/59 60/60/60 57/57/57 56/56/56
f 59/59/59 56/56/56 51/51/51 54/54/54
f 61/61/61 62/62/62 63/63/63 64/64/64
f 61/61/61 64/64/64 42/42/42 41/41/41
f 61/61/61 41/41/41 13/13/13 12/12/12
f 61/61/61 12/12/12 9/9/9 62/62/62
f 65/65/65 66/66/66 31/31/31 30/30/30
f 65/65/65 30/30/30 29/29/29 47/47/47
f 65/65/65 47/47/47 42/42/42 64/64/64
f 65/65/65 64/64/64 63/63/63 66/66/66
f 67/67/67 68/68/68 69/69/69 70/70/70
f 67/67/67 70/70/70 63/63/63 62/62/62
f 67/67/67 62/62/62 9/9/9 8/8/8
f 67/67/67 8/8/8 3/3/3 68/68/68
f 71/71/71 72/72/72 33/33/33 32/32/32
f 71/71/71 32/32/32 31/31/31 66/66/66
f 71/71/71 66/66/66 63/63/63 70/70/70
f 71/71/71 70/70/70 69/69/69 72/72/72
f 73/73/73 58/58/58 57/57/57 74/74/74
f 73/73/73 74/74/74 69/69/69 68/68/68
f 73/73/73 68/68/68 3/3/3 2/2/2
f 73/73/73 2/2/2 6/6/6 58/58/58
f 75/75/75 60/60/60 36/36/36 35/35/35
f 75/75/75 35/35/35 33/33/33 72/72/72
f 75/75/75 72/72/72 69/69/69 74/74/74
f 75/75/75 74/74/74 57/57/57 60/60/60
